<svg xmlns="http://www.w3.org/2000/svg" version="1.1" xmlns:xlink="http://www.w3.org/1999/xlink" xmlns:svgjs="http://svgjs.dev/svgjs" width="1440" height="560" preserveAspectRatio="none" viewBox="0 0 1440 560"><g mask="url(&quot;#SvgjsMask1010&quot;)" fill="none"><path d="M-49.01 404.78L-49.01 404.78" stroke="#132e65" stroke-width="1.5"></path><path d="M-49.01 404.78L-93.7 507.22" stroke="#132e65" stroke-width="1.5"></path><path d="M-49.01 404.78L112.3 392.43" stroke="#132e65" stroke-width="1.5"></path><path d="M-49.01 404.78L108.43 554.69" stroke="#132e65" stroke-width="1.5"></path><path d="M-49.01 404.78L209.55 361.16" stroke="#132e65" stroke-width="1.5"></path><path d="M-93.7 507.22L-93.7 507.22" stroke="#132e65" stroke-width="1.5"></path><path d="M-93.7 507.22L-83.39 707.37" stroke="#132e65" stroke-width="1.5"></path><path d="M-93.7 507.22L108.43 554.69" stroke="#132e65" stroke-width="1.5"></path><path d="M-93.7 507.22L67.65 671.53" stroke="#132e65" stroke-width="1.5"></path><path d="M-83.39 707.37L-83.39 707.37" stroke="#132e65" stroke-width="1.5"></path><path d="M-83.39 707.37L67.65 671.53" stroke="#132e65" stroke-width="1.5"></path><path d="M-83.39 707.37L108.43 554.69" stroke="#132e65" stroke-width="1.5"></path><path d="M-83.39 707.37L201.38 665.41" stroke="#132e65" stroke-width="1.5"></path><path d="M-83.39 707.37L-49.01 404.78" stroke="#132e65" stroke-width="1.5"></path><path d="M112.3 392.43L112.3 392.43" stroke="#132e65" stroke-width="1.5"></path><path d="M112.3 392.43L209.55 361.16" stroke="#132e65" stroke-width="1.5"></path><path d="M108.43 554.69L108.43 554.69" stroke="#132e65" stroke-width="1.5"></path><path d="M108.43 554.69L223.04 554.59" stroke="#132e65" stroke-width="1.5"></path><path d="M108.43 554.69L67.65 671.53" stroke="#132e65" stroke-width="1.5"></path><path d="M67.65 671.53L67.65 671.53" stroke="#132e65" stroke-width="1.5"></path><path d="M67.65 671.53L201.38 665.41" stroke="#132e65" stroke-width="1.5"></path><path d="M209.55 361.16L209.55 361.16" stroke="#132e65" stroke-width="1.5"></path><path d="M209.55 361.16L367.87 376.33" stroke="#132e65" stroke-width="1.5"></path><path d="M209.55 361.16L223.04 554.59" stroke="#132e65" stroke-width="1.5"></path><path d="M209.55 361.16L108.43 554.69" stroke="#132e65" stroke-width="1.5"></path><path d="M223.04 554.59L223.04 554.59" stroke="#132e65" stroke-width="1.5"></path><path d="M223.04 554.59L201.38 665.41" stroke="#132e65" stroke-width="1.5"></path><path d="M223.04 554.59L374.93 516.55" stroke="#132e65" stroke-width="1.5"></path><path d="M223.04 554.59L354.84 690.79" stroke="#132e65" stroke-width="1.5"></path><path d="M201.38 665.41L201.38 665.41" stroke="#132e65" stroke-width="1.5"></path><path d="M201.38 665.41L108.43 554.69" stroke="#132e65" stroke-width="1.5"></path><path d="M201.38 665.41L354.84 690.79" stroke="#132e65" stroke-width="1.5"></path><path d="M201.38 665.41L374.93 516.55" stroke="#132e65" stroke-width="1.5"></path><path d="M367.87 376.33L367.87 376.33" stroke="#132e65" stroke-width="1.5"></path><path d="M367.87 376.33L374.93 516.55" stroke="#132e65" stroke-width="1.5"></path><path d="M367.87 376.33L512.85 357.83" stroke="#132e65" stroke-width="1.5"></path><path d="M374.93 516.55L374.93 516.55" stroke="#132e65" stroke-width="1.5"></path><path d="M374.93 516.55L354.84 690.79" stroke="#132e65" stroke-width="1.5"></path><path d="M374.93 516.55L555.67 504.5" stroke="#132e65" stroke-width="1.5"></path><path d="M374.93 516.55L512.85 357.83" stroke="#132e65" stroke-width="1.5"></path><path d="M354.84 690.79L354.84 690.79" stroke="#132e65" stroke-width="1.5"></path><path d="M354.84 690.79L491.9 706.25" stroke="#132e65" stroke-width="1.5"></path><path d="M512.85 357.83L512.85 357.83" stroke="#132e65" stroke-width="1.5"></path><path d="M512.85 357.83L555.67 504.5" stroke="#132e65" stroke-width="1.5"></path><path d="M555.67 504.5L555.67 504.5" stroke="#132e65" stroke-width="1.5"></path><path d="M555.67 504.5L702.09 494.8" stroke="#132e65" stroke-width="1.5"></path><path d="M555.67 504.5L491.9 706.25" stroke="#132e65" stroke-width="1.5"></path><path d="M555.67 504.5L367.87 376.33" stroke="#132e65" stroke-width="1.5"></path><path d="M491.9 706.25L491.9 706.25" stroke="#132e65" stroke-width="1.5"></path><path d="M491.9 706.25L687.14 703.8" stroke="#132e65" stroke-width="1.5"></path><path d="M650.44 235.35L650.44 235.35" stroke="#132e65" stroke-width="1.5"></path><path d="M650.44 235.35L512.85 357.83" stroke="#132e65" stroke-width="1.5"></path><path d="M650.44 235.35L841.86 252.53" stroke="#132e65" stroke-width="1.5"></path><path d="M650.44 235.35L830.52 385.51" stroke="#132e65" stroke-width="1.5"></path><path d="M650.44 235.35L843.6 86.29" stroke="#132e65" stroke-width="1.5"></path><path d="M650.44 235.35L702.09 494.8" stroke="#132e65" stroke-width="1.5"></path><path d="M650.44 235.35L555.67 504.5" stroke="#132e65" stroke-width="1.5"></path><path d="M702.09 494.8L702.09 494.8" stroke="#132e65" stroke-width="1.5"></path><path d="M702.09 494.8L830.52 385.51" stroke="#132e65" stroke-width="1.5"></path><path d="M702.09 494.8L687.14 703.8" stroke="#132e65" stroke-width="1.5"></path><path d="M687.14 703.8L687.14 703.8" stroke="#132e65" stroke-width="1.5"></path><path d="M687.14 703.8L826.85 672.02" stroke="#132e65" stroke-width="1.5"></path><path d="M687.14 703.8L555.67 504.5" stroke="#132e65" stroke-width="1.5"></path><path d="M843.6 86.29L843.6 86.29" stroke="#132e65" stroke-width="1.5"></path><path d="M843.6 86.29L952.7 104.58" stroke="#132e65" stroke-width="1.5"></path><path d="M843.6 86.29L841.86 252.53" stroke="#132e65" stroke-width="1.5"></path><path d="M843.6 86.29L947 241.44" stroke="#132e65" stroke-width="1.5"></path><path d="M843.6 86.29L987.07 -78.28" stroke="#132e65" stroke-width="1.5"></path><path d="M841.86 252.53L841.86 252.53" stroke="#132e65" stroke-width="1.5"></path><path d="M841.86 252.53L947 241.44" stroke="#132e65" stroke-width="1.5"></path><path d="M841.86 252.53L830.52 385.51" stroke="#132e65" stroke-width="1.5"></path><path d="M841.86 252.53L997.11 341.36" stroke="#132e65" stroke-width="1.5"></path><path d="M841.86 252.53L952.7 104.58" stroke="#132e65" stroke-width="1.5"></path><path d="M830.52 385.51L830.52 385.51" stroke="#132e65" stroke-width="1.5"></path><path d="M830.52 385.51L997.11 341.36" stroke="#132e65" stroke-width="1.5"></path><path d="M830.52 385.51L947 241.44" stroke="#132e65" stroke-width="1.5"></path><path d="M826.85 672.02L826.85 672.02" stroke="#132e65" stroke-width="1.5"></path><path d="M826.85 672.02L945.26 709.42" stroke="#132e65" stroke-width="1.5"></path><path d="M826.85 672.02L702.09 494.8" stroke="#132e65" stroke-width="1.5"></path><path d="M826.85 672.02L1006.97 550.33" stroke="#132e65" stroke-width="1.5"></path><path d="M826.85 672.02L830.52 385.51" stroke="#132e65" stroke-width="1.5"></path><path d="M826.85 672.02L1091.69 561.91" stroke="#132e65" stroke-width="1.5"></path><path d="M987.07 -78.28L987.07 -78.28" stroke="#132e65" stroke-width="1.5"></path><path d="M987.07 -78.28L1111.34 -85.67" stroke="#132e65" stroke-width="1.5"></path><path d="M987.07 -78.28L1107.11 49.31" stroke="#132e65" stroke-width="1.5"></path><path d="M952.7 104.58L952.7 104.58" stroke="#132e65" stroke-width="1.5"></path><path d="M952.7 104.58L947 241.44" stroke="#132e65" stroke-width="1.5"></path><path d="M952.7 104.58L1107.11 49.31" stroke="#132e65" stroke-width="1.5"></path><path d="M952.7 104.58L987.07 -78.28" stroke="#132e65" stroke-width="1.5"></path><path d="M947 241.44L947 241.44" stroke="#132e65" stroke-width="1.5"></path><path d="M947 241.44L997.11 341.36" stroke="#132e65" stroke-width="1.5"></path><path d="M997.11 341.36L997.11 341.36" stroke="#132e65" stroke-width="1.5"></path><path d="M997.11 341.36L1153.76 361.14" stroke="#132e65" stroke-width="1.5"></path><path d="M997.11 341.36L1145.77 255.08" stroke="#132e65" stroke-width="1.5"></path><path d="M1006.97 550.33L1006.97 550.33" stroke="#132e65" stroke-width="1.5"></path><path d="M1006.97 550.33L1091.69 561.91" stroke="#132e65" stroke-width="1.5"></path><path d="M1006.97 550.33L945.26 709.42" stroke="#132e65" stroke-width="1.5"></path><path d="M1006.97 550.33L1141.4 695.87" stroke="#132e65" stroke-width="1.5"></path><path d="M1006.97 550.33L997.11 341.36" stroke="#132e65" stroke-width="1.5"></path><path d="M1006.97 550.33L1153.76 361.14" stroke="#132e65" stroke-width="1.5"></path><path d="M945.26 709.42L945.26 709.42" stroke="#132e65" stroke-width="1.5"></path><path d="M945.26 709.42L1141.4 695.87" stroke="#132e65" stroke-width="1.5"></path><path d="M945.26 709.42L1091.69 561.91" stroke="#132e65" stroke-width="1.5"></path><path d="M945.26 709.42L687.14 703.8" stroke="#132e65" stroke-width="1.5"></path><path d="M945.26 709.42L702.09 494.8" stroke="#132e65" stroke-width="1.5"></path><path d="M1111.34 -85.67L1111.34 -85.67" stroke="#132e65" stroke-width="1.5"></path><path d="M1111.34 -85.67L1107.11 49.31" stroke="#132e65" stroke-width="1.5"></path><path d="M1111.34 -85.67L1280.51 -58.84" stroke="#132e65" stroke-width="1.5"></path><path d="M1111.34 -85.67L952.7 104.58" stroke="#132e65" stroke-width="1.5"></path><path d="M1107.11 49.31L1107.11 49.31" stroke="#132e65" stroke-width="1.5"></path><path d="M1107.11 49.31L1280.51 -58.84" stroke="#132e65" stroke-width="1.5"></path><path d="M1107.11 49.31L1145.77 255.08" stroke="#132e65" stroke-width="1.5"></path><path d="M1107.11 49.31L1268.07 198.79" stroke="#132e65" stroke-width="1.5"></path><path d="M1145.77 255.08L1145.77 255.08" stroke="#132e65" stroke-width="1.5"></path><path d="M1145.77 255.08L1153.76 361.14" stroke="#132e65" stroke-width="1.5"></path><path d="M1145.77 255.08L1268.07 198.79" stroke="#132e65" stroke-width="1.5"></path><path d="M1145.77 255.08L1280.01 381.56" stroke="#132e65" stroke-width="1.5"></path><path d="M1153.76 361.14L1153.76 361.14" stroke="#132e65" stroke-width="1.5"></path><path d="M1153.76 361.14L1280.01 381.56" stroke="#132e65" stroke-width="1.5"></path><path d="M1091.69 561.91L1091.69 561.91" stroke="#132e65" stroke-width="1.5"></path><path d="M1091.69 561.91L1141.4 695.87" stroke="#132e65" stroke-width="1.5"></path><path d="M1091.69 561.91L1263.18 504.28" stroke="#132e65" stroke-width="1.5"></path><path d="M1141.4 695.87L1141.4 695.87" stroke="#132e65" stroke-width="1.5"></path><path d="M1141.4 695.87L1308.91 646.55" stroke="#132e65" stroke-width="1.5"></path><path d="M1141.4 695.87L1263.18 504.28" stroke="#132e65" stroke-width="1.5"></path><path d="M1280.51 -58.84L1280.51 -58.84" stroke="#132e65" stroke-width="1.5"></path><path d="M1280.51 -58.84L1415.67 -49.43" stroke="#132e65" stroke-width="1.5"></path><path d="M1280.51 -58.84L1445.56 39.02" stroke="#132e65" stroke-width="1.5"></path><path d="M1280.51 -58.84L1268.07 198.79" stroke="#132e65" stroke-width="1.5"></path><path d="M1280.51 -58.84L987.07 -78.28" stroke="#132e65" stroke-width="1.5"></path><path d="M1268.07 198.79L1268.07 198.79" stroke="#132e65" stroke-width="1.5"></path><path d="M1268.07 198.79L1417.28 226.33" stroke="#132e65" stroke-width="1.5"></path><path d="M1268.07 198.79L1280.01 381.56" stroke="#132e65" stroke-width="1.5"></path><path d="M1268.07 198.79L1389.98 342.19" stroke="#132e65" stroke-width="1.5"></path><path d="M1268.07 198.79L1153.76 361.14" stroke="#132e65" stroke-width="1.5"></path><path d="M1280.01 381.56L1280.01 381.56" stroke="#132e65" stroke-width="1.5"></path><path d="M1280.01 381.56L1389.98 342.19" stroke="#132e65" stroke-width="1.5"></path><path d="M1280.01 381.56L1263.18 504.28" stroke="#132e65" stroke-width="1.5"></path><path d="M1280.01 381.56L1448.54 487.59" stroke="#132e65" stroke-width="1.5"></path><path d="M1263.18 504.28L1263.18 504.28" stroke="#132e65" stroke-width="1.5"></path><path d="M1263.18 504.28L1308.91 646.55" stroke="#132e65" stroke-width="1.5"></path><path d="M1263.18 504.28L1153.76 361.14" stroke="#132e65" stroke-width="1.5"></path><path d="M1263.18 504.28L1448.54 487.59" stroke="#132e65" stroke-width="1.5"></path><path d="M1308.91 646.55L1308.91 646.55" stroke="#132e65" stroke-width="1.5"></path><path d="M1308.91 646.55L1428.13 704.49" stroke="#132e65" stroke-width="1.5"></path><path d="M1308.91 646.55L1448.54 487.59" stroke="#132e65" stroke-width="1.5"></path><path d="M1308.91 646.55L1091.69 561.91" stroke="#132e65" stroke-width="1.5"></path><path d="M1308.91 646.55L1568.99 679.78" stroke="#132e65" stroke-width="1.5"></path><path d="M1415.67 -49.43L1415.67 -49.43" stroke="#132e65" stroke-width="1.5"></path><path d="M1415.67 -49.43L1445.56 39.02" stroke="#132e65" stroke-width="1.5"></path><path d="M1445.56 39.02L1445.56 39.02" stroke="#132e65" stroke-width="1.5"></path><path d="M1445.56 39.02L1577.63 -53.2" stroke="#132e65" stroke-width="1.5"></path><path d="M1445.56 39.02L1597.01 95.28" stroke="#132e65" stroke-width="1.5"></path><path d="M1445.56 39.02L1417.28 226.33" stroke="#132e65" stroke-width="1.5"></path><path d="M1417.28 226.33L1417.28 226.33" stroke="#132e65" stroke-width="1.5"></path><path d="M1417.28 226.33L1389.98 342.19" stroke="#132e65" stroke-width="1.5"></path><path d="M1417.28 226.33L1603.13 217.48" stroke="#132e65" stroke-width="1.5"></path><path d="M1389.98 342.19L1389.98 342.19" stroke="#132e65" stroke-width="1.5"></path><path d="M1389.98 342.19L1448.54 487.59" stroke="#132e65" stroke-width="1.5"></path><path d="M1389.98 342.19L1263.18 504.28" stroke="#132e65" stroke-width="1.5"></path><path d="M1448.54 487.59L1448.54 487.59" stroke="#132e65" stroke-width="1.5"></path><path d="M1448.54 487.59L1581.77 553.14" stroke="#132e65" stroke-width="1.5"></path><path d="M1428.13 704.49L1428.13 704.49" stroke="#132e65" stroke-width="1.5"></path><path d="M1428.13 704.49L1568.99 679.78" stroke="#132e65" stroke-width="1.5"></path><path d="M1428.13 704.49L1581.77 553.14" stroke="#132e65" stroke-width="1.5"></path><path d="M1428.13 704.49L1448.54 487.59" stroke="#132e65" stroke-width="1.5"></path><path d="M1577.63 -53.2L1577.63 -53.2" stroke="#132e65" stroke-width="1.5"></path><path d="M1577.63 -53.2L1597.01 95.28" stroke="#132e65" stroke-width="1.5"></path><path d="M1597.01 95.28L1597.01 95.28" stroke="#132e65" stroke-width="1.5"></path><path d="M1597.01 95.28L1603.13 217.48" stroke="#132e65" stroke-width="1.5"></path><path d="M1597.01 95.28L1417.28 226.33" stroke="#132e65" stroke-width="1.5"></path><path d="M1597.01 95.28L1415.67 -49.43" stroke="#132e65" stroke-width="1.5"></path><path d="M1603.13 217.48L1603.13 217.48" stroke="#132e65" stroke-width="1.5"></path><path d="M1581.77 553.14L1581.77 553.14" stroke="#132e65" stroke-width="1.5"></path><path d="M1581.77 553.14L1568.99 679.78" stroke="#132e65" stroke-width="1.5"></path><path d="M1568.99 679.78L1568.99 679.78" stroke="#132e65" stroke-width="1.5"></path><path d="M1568.99 679.78L1448.54 487.59" stroke="#132e65" stroke-width="1.5"></path><circle r="5" cx="-49.01" cy="404.78" fill="#132e65"></circle><circle r="5" cx="-93.7" cy="507.22" fill="#132e65"></circle><circle r="5" cx="-83.39" cy="707.37" fill="#132e65"></circle><circle r="5" cx="112.3" cy="392.43" fill="#132e65"></circle><circle r="5" cx="108.43" cy="554.69" fill="#132e65"></circle><circle r="5" cx="67.65" cy="671.53" fill="#132e65"></circle><circle r="5" cx="209.55" cy="361.16" fill="#132e65"></circle><circle r="5" cx="223.04" cy="554.59" fill="#132e65"></circle><circle r="5" cx="201.38" cy="665.41" fill="#132e65"></circle><circle r="5" cx="367.87" cy="376.33" fill="#132e65"></circle><circle r="5" cx="374.93" cy="516.55" fill="#132e65"></circle><circle r="5" cx="354.84" cy="690.79" fill="#132e65"></circle><circle r="5" cx="512.85" cy="357.83" fill="#132e65"></circle><circle r="5" cx="555.67" cy="504.5" fill="#132e65"></circle><circle r="5" cx="491.9" cy="706.25" fill="#132e65"></circle><circle r="5" cx="650.44" cy="235.35" fill="#132e65"></circle><circle r="5" cx="702.09" cy="494.8" fill="#132e65"></circle><circle r="5" cx="687.14" cy="703.8" fill="#132e65"></circle><circle r="5" cx="843.6" cy="86.29" fill="#132e65"></circle><circle r="5" cx="841.86" cy="252.53" fill="#132e65"></circle><circle r="5" cx="830.52" cy="385.51" fill="#132e65"></circle><circle r="5" cx="826.85" cy="672.02" fill="#132e65"></circle><circle r="5" cx="987.07" cy="-78.28" fill="#132e65"></circle><circle r="5" cx="952.7" cy="104.58" fill="#132e65"></circle><circle r="5" cx="947" cy="241.44" fill="#132e65"></circle><circle r="5" cx="997.11" cy="341.36" fill="#132e65"></circle><circle r="5" cx="1006.97" cy="550.33" fill="#132e65"></circle><circle r="5" cx="945.26" cy="709.42" fill="#132e65"></circle><circle r="5" cx="1111.34" cy="-85.67" fill="#132e65"></circle><circle r="5" cx="1107.11" cy="49.31" fill="#132e65"></circle><circle r="5" cx="1145.77" cy="255.08" fill="#132e65"></circle><circle r="5" cx="1153.76" cy="361.14" fill="#132e65"></circle><circle r="5" cx="1091.69" cy="561.91" fill="#132e65"></circle><circle r="5" cx="1141.4" cy="695.87" fill="#132e65"></circle><circle r="5" cx="1280.51" cy="-58.84" fill="#132e65"></circle><circle r="5" cx="1268.07" cy="198.79" fill="#132e65"></circle><circle r="5" cx="1280.01" cy="381.56" fill="#132e65"></circle><circle r="5" cx="1263.18" cy="504.28" fill="#132e65"></circle><circle r="5" cx="1308.91" cy="646.55" fill="#132e65"></circle><circle r="5" cx="1415.67" cy="-49.43" fill="#132e65"></circle><circle r="5" cx="1445.56" cy="39.02" fill="#132e65"></circle><circle r="5" cx="1417.28" cy="226.33" fill="#132e65"></circle><circle r="5" cx="1389.98" cy="342.19" fill="#132e65"></circle><circle r="5" cx="1448.54" cy="487.59" fill="#132e65"></circle><circle r="5" cx="1428.13" cy="704.49" fill="#132e65"></circle><circle r="5" cx="1577.63" cy="-53.2" fill="#132e65"></circle><circle r="5" cx="1597.01" cy="95.28" fill="#132e65"></circle><circle r="5" cx="1603.13" cy="217.48" fill="#132e65"></circle><circle r="5" cx="1581.77" cy="553.14" fill="#132e65"></circle><circle r="5" cx="1568.99" cy="679.78" fill="#132e65"></circle><path d="M861.78 369.71L861.78 369.71" stroke="hsl(228.5, 77.2%, 51.5%)" stroke-width="1.5"></path><path d="M861.78 369.71L968.86 404.92" stroke="hsl(228.5, 77.2%, 51.5%)" stroke-width="1.5"></path><path d="M861.78 369.71L799.7 544.47" stroke="hsl(228.5, 77.2%, 51.5%)" stroke-width="1.5"></path><path d="M861.78 369.71L668.6 366.09" stroke="hsl(228.5, 77.2%, 51.5%)" stroke-width="1.5"></path><path d="M861.78 369.71L1100.53 369.91" stroke="hsl(228.5, 77.2%, 51.5%)" stroke-width="1.5"></path><path d="M861.78 369.71L653.33 491.13" stroke="hsl(228.5, 77.2%, 51.5%)" stroke-width="1.5"></path><path d="M1590.19 45.54L1590.19 45.54" stroke="hsl(228.5, 77.2%, 51.5%)" stroke-width="1.5"></path><path d="M1590.19 45.54L1585.08 -98.22" stroke="hsl(228.5, 77.2%, 51.5%)" stroke-width="1.5"></path><path d="M1590.19 45.54L1408.48 63.18" stroke="hsl(228.5, 77.2%, 51.5%)" stroke-width="1.5"></path><path d="M-42.76 561.28L-42.76 561.28" stroke="hsl(228.5, 77.2%, 51.5%)" stroke-width="1.5"></path><path d="M-42.76 561.28L-102.86 681.94" stroke="hsl(228.5, 77.2%, 51.5%)" stroke-width="1.5"></path><path d="M-102.86 681.94L-102.86 681.94" stroke="hsl(228.5, 77.2%, 51.5%)" stroke-width="1.5"></path><path d="M-102.86 681.94L231.19 648.19" stroke="hsl(228.5, 77.2%, 51.5%)" stroke-width="1.5"></path><path d="M-102.86 681.94L235.49 539.77" stroke="hsl(228.5, 77.2%, 51.5%)" stroke-width="1.5"></path><path d="M-102.86 681.94L345.44 709.41" stroke="hsl(228.5, 77.2%, 51.5%)" stroke-width="1.5"></path><path d="M-102.86 681.94L412.12 513.33" stroke="hsl(228.5, 77.2%, 51.5%)" stroke-width="1.5"></path><path d="M235.49 539.77L235.49 539.77" stroke="hsl(228.5, 77.2%, 51.5%)" stroke-width="1.5"></path><path d="M235.49 539.77L231.19 648.19" stroke="hsl(228.5, 77.2%, 51.5%)" stroke-width="1.5"></path><path d="M235.49 539.77L412.12 513.33" stroke="hsl(228.5, 77.2%, 51.5%)" stroke-width="1.5"></path><path d="M235.49 539.77L345.44 709.41" stroke="hsl(228.5, 77.2%, 51.5%)" stroke-width="1.5"></path><path d="M235.49 539.77L-42.76 561.28" stroke="hsl(228.5, 77.2%, 51.5%)" stroke-width="1.5"></path><path d="M235.49 539.77L550.32 521.97" stroke="hsl(228.5, 77.2%, 51.5%)" stroke-width="1.5"></path><path d="M235.49 539.77L540.18 399.14" stroke="hsl(228.5, 77.2%, 51.5%)" stroke-width="1.5"></path><path d="M231.19 648.19L231.19 648.19" stroke="hsl(228.5, 77.2%, 51.5%)" stroke-width="1.5"></path><path d="M231.19 648.19L345.44 709.41" stroke="hsl(228.5, 77.2%, 51.5%)" stroke-width="1.5"></path><path d="M412.12 513.33L412.12 513.33" stroke="hsl(228.5, 77.2%, 51.5%)" stroke-width="1.5"></path><path d="M412.12 513.33L550.32 521.97" stroke="hsl(228.5, 77.2%, 51.5%)" stroke-width="1.5"></path><path d="M412.12 513.33L540.18 399.14" stroke="hsl(228.5, 77.2%, 51.5%)" stroke-width="1.5"></path><path d="M345.44 709.41L345.44 709.41" stroke="hsl(228.5, 77.2%, 51.5%)" stroke-width="1.5"></path><path d="M345.44 709.41L412.12 513.33" stroke="hsl(228.5, 77.2%, 51.5%)" stroke-width="1.5"></path><path d="M540.18 399.14L540.18 399.14" stroke="hsl(228.5, 77.2%, 51.5%)" stroke-width="1.5"></path><path d="M540.18 399.14L550.32 521.97" stroke="hsl(228.5, 77.2%, 51.5%)" stroke-width="1.5"></path><path d="M550.32 521.97L550.32 521.97" stroke="hsl(228.5, 77.2%, 51.5%)" stroke-width="1.5"></path><path d="M550.32 521.97L653.33 491.13" stroke="hsl(228.5, 77.2%, 51.5%)" stroke-width="1.5"></path><path d="M553 671.8L553 671.8" stroke="hsl(228.5, 77.2%, 51.5%)" stroke-width="1.5"></path><path d="M553 671.8L678.37 668.04" stroke="hsl(228.5, 77.2%, 51.5%)" stroke-width="1.5"></path><path d="M553 671.8L550.32 521.97" stroke="hsl(228.5, 77.2%, 51.5%)" stroke-width="1.5"></path><path d="M553 671.8L653.33 491.13" stroke="hsl(228.5, 77.2%, 51.5%)" stroke-width="1.5"></path><path d="M553 671.8L345.44 709.41" stroke="hsl(228.5, 77.2%, 51.5%)" stroke-width="1.5"></path><path d="M553 671.8L412.12 513.33" stroke="hsl(228.5, 77.2%, 51.5%)" stroke-width="1.5"></path><path d="M668.6 366.09L668.6 366.09" stroke="hsl(228.5, 77.2%, 51.5%)" stroke-width="1.5"></path><path d="M668.6 366.09L653.33 491.13" stroke="hsl(228.5, 77.2%, 51.5%)" stroke-width="1.5"></path><path d="M668.6 366.09L540.18 399.14" stroke="hsl(228.5, 77.2%, 51.5%)" stroke-width="1.5"></path><path d="M653.33 491.13L653.33 491.13" stroke="hsl(228.5, 77.2%, 51.5%)" stroke-width="1.5"></path><path d="M653.33 491.13L540.18 399.14" stroke="hsl(228.5, 77.2%, 51.5%)" stroke-width="1.5"></path><path d="M653.33 491.13L799.7 544.47" stroke="hsl(228.5, 77.2%, 51.5%)" stroke-width="1.5"></path><path d="M678.37 668.04L678.37 668.04" stroke="hsl(228.5, 77.2%, 51.5%)" stroke-width="1.5"></path><path d="M678.37 668.04L839.93 656.91" stroke="hsl(228.5, 77.2%, 51.5%)" stroke-width="1.5"></path><path d="M678.37 668.04L799.7 544.47" stroke="hsl(228.5, 77.2%, 51.5%)" stroke-width="1.5"></path><path d="M678.37 668.04L653.33 491.13" stroke="hsl(228.5, 77.2%, 51.5%)" stroke-width="1.5"></path><path d="M678.37 668.04L550.32 521.97" stroke="hsl(228.5, 77.2%, 51.5%)" stroke-width="1.5"></path><path d="M678.37 668.04L668.6 366.09" stroke="hsl(228.5, 77.2%, 51.5%)" stroke-width="1.5"></path><path d="M799.7 544.47L799.7 544.47" stroke="hsl(228.5, 77.2%, 51.5%)" stroke-width="1.5"></path><path d="M799.7 544.47L839.93 656.91" stroke="hsl(228.5, 77.2%, 51.5%)" stroke-width="1.5"></path><path d="M839.93 656.91L839.93 656.91" stroke="hsl(228.5, 77.2%, 51.5%)" stroke-width="1.5"></path><path d="M968.86 404.92L968.86 404.92" stroke="hsl(228.5, 77.2%, 51.5%)" stroke-width="1.5"></path><path d="M968.86 404.92L1100.53 369.91" stroke="hsl(228.5, 77.2%, 51.5%)" stroke-width="1.5"></path><path d="M968.86 404.92L1106.57 544.79" stroke="hsl(228.5, 77.2%, 51.5%)" stroke-width="1.5"></path><path d="M990.17 702.64L990.17 702.64" stroke="hsl(228.5, 77.2%, 51.5%)" stroke-width="1.5"></path><path d="M990.17 702.64L1139.6 701.92" stroke="hsl(228.5, 77.2%, 51.5%)" stroke-width="1.5"></path><path d="M990.17 702.64L839.93 656.91" stroke="hsl(228.5, 77.2%, 51.5%)" stroke-width="1.5"></path><path d="M990.17 702.64L1106.57 544.79" stroke="hsl(228.5, 77.2%, 51.5%)" stroke-width="1.5"></path><path d="M990.17 702.64L799.7 544.47" stroke="hsl(228.5, 77.2%, 51.5%)" stroke-width="1.5"></path><path d="M990.17 702.64L968.86 404.92" stroke="hsl(228.5, 77.2%, 51.5%)" stroke-width="1.5"></path><path d="M1156.64 56.84L1156.64 56.84" stroke="hsl(228.5, 77.2%, 51.5%)" stroke-width="1.5"></path><path d="M1156.64 56.84L1284.91 47.73" stroke="hsl(228.5, 77.2%, 51.5%)" stroke-width="1.5"></path><path d="M1156.64 56.84L1122.46 251.2" stroke="hsl(228.5, 77.2%, 51.5%)" stroke-width="1.5"></path><path d="M1156.64 56.84L1288.88 -104.64" stroke="hsl(228.5, 77.2%, 51.5%)" stroke-width="1.5"></path><path d="M1156.64 56.84L1301.13 210.14" stroke="hsl(228.5, 77.2%, 51.5%)" stroke-width="1.5"></path><path d="M1156.64 56.84L1408.48 63.18" stroke="hsl(228.5, 77.2%, 51.5%)" stroke-width="1.5"></path><path d="M1122.46 251.2L1122.46 251.2" stroke="hsl(228.5, 77.2%, 51.5%)" stroke-width="1.5"></path><path d="M1122.46 251.2L1100.53 369.91" stroke="hsl(228.5, 77.2%, 51.5%)" stroke-width="1.5"></path><path d="M1100.53 369.91L1100.53 369.91" stroke="hsl(228.5, 77.2%, 51.5%)" stroke-width="1.5"></path><path d="M1106.57 544.79L1106.57 544.79" stroke="hsl(228.5, 77.2%, 51.5%)" stroke-width="1.5"></path><path d="M1106.57 544.79L1139.6 701.92" stroke="hsl(228.5, 77.2%, 51.5%)" stroke-width="1.5"></path><path d="M1106.57 544.79L1100.53 369.91" stroke="hsl(228.5, 77.2%, 51.5%)" stroke-width="1.5"></path><path d="M1139.6 701.92L1139.6 701.92" stroke="hsl(228.5, 77.2%, 51.5%)" stroke-width="1.5"></path><path d="M1288.88 -104.64L1288.88 -104.64" stroke="hsl(228.5, 77.2%, 51.5%)" stroke-width="1.5"></path><path d="M1288.88 -104.64L1421.84 -75.16" stroke="hsl(228.5, 77.2%, 51.5%)" stroke-width="1.5"></path><path d="M1288.88 -104.64L1284.91 47.73" stroke="hsl(228.5, 77.2%, 51.5%)" stroke-width="1.5"></path><path d="M1288.88 -104.64L1408.48 63.18" stroke="hsl(228.5, 77.2%, 51.5%)" stroke-width="1.5"></path><path d="M1288.88 -104.64L1585.08 -98.22" stroke="hsl(228.5, 77.2%, 51.5%)" stroke-width="1.5"></path><path d="M1288.88 -104.64L1301.13 210.14" stroke="hsl(228.5, 77.2%, 51.5%)" stroke-width="1.5"></path><path d="M1284.91 47.73L1284.91 47.73" stroke="hsl(228.5, 77.2%, 51.5%)" stroke-width="1.5"></path><path d="M1284.91 47.73L1408.48 63.18" stroke="hsl(228.5, 77.2%, 51.5%)" stroke-width="1.5"></path><path d="M1284.91 47.73L1301.13 210.14" stroke="hsl(228.5, 77.2%, 51.5%)" stroke-width="1.5"></path><path d="M1284.91 47.73L1421.84 -75.16" stroke="hsl(228.5, 77.2%, 51.5%)" stroke-width="1.5"></path><path d="M1301.13 210.14L1301.13 210.14" stroke="hsl(228.5, 77.2%, 51.5%)" stroke-width="1.5"></path><path d="M1301.13 210.14L1435.42 217.2" stroke="hsl(228.5, 77.2%, 51.5%)" stroke-width="1.5"></path><path d="M1301.13 210.14L1408.48 63.18" stroke="hsl(228.5, 77.2%, 51.5%)" stroke-width="1.5"></path><path d="M1301.13 210.14L1122.46 251.2" stroke="hsl(228.5, 77.2%, 51.5%)" stroke-width="1.5"></path><path d="M1301.13 210.14L1260.45 398.84" stroke="hsl(228.5, 77.2%, 51.5%)" stroke-width="1.5"></path><path d="M1260.45 398.84L1260.45 398.84" stroke="hsl(228.5, 77.2%, 51.5%)" stroke-width="1.5"></path><path d="M1260.45 398.84L1412.24 409.56" stroke="hsl(228.5, 77.2%, 51.5%)" stroke-width="1.5"></path><path d="M1260.45 398.84L1100.53 369.91" stroke="hsl(228.5, 77.2%, 51.5%)" stroke-width="1.5"></path><path d="M1260.45 398.84L1122.46 251.2" stroke="hsl(228.5, 77.2%, 51.5%)" stroke-width="1.5"></path><path d="M1260.45 398.84L1106.57 544.79" stroke="hsl(228.5, 77.2%, 51.5%)" stroke-width="1.5"></path><path d="M1260.45 398.84L1447.92 513.47" stroke="hsl(228.5, 77.2%, 51.5%)" stroke-width="1.5"></path><path d="M1294.72 681.92L1294.72 681.92" stroke="hsl(228.5, 77.2%, 51.5%)" stroke-width="1.5"></path><path d="M1294.72 681.92L1139.6 701.92" stroke="hsl(228.5, 77.2%, 51.5%)" stroke-width="1.5"></path><path d="M1294.72 681.92L1447.92 513.47" stroke="hsl(228.5, 77.2%, 51.5%)" stroke-width="1.5"></path><path d="M1294.72 681.92L1106.57 544.79" stroke="hsl(228.5, 77.2%, 51.5%)" stroke-width="1.5"></path><path d="M1294.72 681.92L1260.45 398.84" stroke="hsl(228.5, 77.2%, 51.5%)" stroke-width="1.5"></path><path d="M1421.84 -75.16L1421.84 -75.16" stroke="hsl(228.5, 77.2%, 51.5%)" stroke-width="1.5"></path><path d="M1421.84 -75.16L1408.48 63.18" stroke="hsl(228.5, 77.2%, 51.5%)" stroke-width="1.5"></path><path d="M1408.48 63.18L1408.48 63.18" stroke="hsl(228.5, 77.2%, 51.5%)" stroke-width="1.5"></path><path d="M1435.42 217.2L1435.42 217.2" stroke="hsl(228.5, 77.2%, 51.5%)" stroke-width="1.5"></path><path d="M1435.42 217.2L1542.27 229.34" stroke="hsl(228.5, 77.2%, 51.5%)" stroke-width="1.5"></path><path d="M1412.24 409.56L1412.24 409.56" stroke="hsl(228.5, 77.2%, 51.5%)" stroke-width="1.5"></path><path d="M1412.24 409.56L1447.92 513.47" stroke="hsl(228.5, 77.2%, 51.5%)" stroke-width="1.5"></path><path d="M1412.24 409.56L1537.74 402.41" stroke="hsl(228.5, 77.2%, 51.5%)" stroke-width="1.5"></path><path d="M1412.24 409.56L1435.42 217.2" stroke="hsl(228.5, 77.2%, 51.5%)" stroke-width="1.5"></path><path d="M1412.24 409.56L1583.43 540.94" stroke="hsl(228.5, 77.2%, 51.5%)" stroke-width="1.5"></path><path d="M1447.92 513.47L1447.92 513.47" stroke="hsl(228.5, 77.2%, 51.5%)" stroke-width="1.5"></path><path d="M1447.92 513.47L1583.43 540.94" stroke="hsl(228.5, 77.2%, 51.5%)" stroke-width="1.5"></path><path d="M1447.92 513.47L1537.74 402.41" stroke="hsl(228.5, 77.2%, 51.5%)" stroke-width="1.5"></path><path d="M1447.92 513.47L1589.7 684.16" stroke="hsl(228.5, 77.2%, 51.5%)" stroke-width="1.5"></path><path d="M1585.08 -98.22L1585.08 -98.22" stroke="hsl(228.5, 77.2%, 51.5%)" stroke-width="1.5"></path><path d="M1585.08 -98.22L1421.84 -75.16" stroke="hsl(228.5, 77.2%, 51.5%)" stroke-width="1.5"></path><path d="M1542.27 229.34L1542.27 229.34" stroke="hsl(228.5, 77.2%, 51.5%)" stroke-width="1.5"></path><path d="M1542.27 229.34L1537.74 402.41" stroke="hsl(228.5, 77.2%, 51.5%)" stroke-width="1.5"></path><path d="M1542.27 229.34L1590.19 45.54" stroke="hsl(228.5, 77.2%, 51.5%)" stroke-width="1.5"></path><path d="M1537.74 402.41L1537.74 402.41" stroke="hsl(228.5, 77.2%, 51.5%)" stroke-width="1.5"></path><path d="M1537.74 402.41L1583.43 540.94" stroke="hsl(228.5, 77.2%, 51.5%)" stroke-width="1.5"></path><path d="M1583.43 540.94L1583.43 540.94" stroke="hsl(228.5, 77.2%, 51.5%)" stroke-width="1.5"></path><path d="M1583.43 540.94L1589.7 684.16" stroke="hsl(228.5, 77.2%, 51.5%)" stroke-width="1.5"></path><path d="M1589.7 684.16L1589.7 684.16" stroke="hsl(228.5, 77.2%, 51.5%)" stroke-width="1.5"></path><circle r="25" cx="861.78" cy="369.71" fill="url(&quot;#SvgjsRadialGradient1011&quot;)"></circle><circle r="25" cx="1590.19" cy="45.54" fill="url(&quot;#SvgjsRadialGradient1011&quot;)"></circle><circle r="5" cx="-42.76" cy="561.28" fill="#8b9ad9"></circle><circle r="5" cx="-102.86" cy="681.94" fill="#8b9ad9"></circle><circle r="5" cx="235.49" cy="539.77" fill="#8b9ad9"></circle><circle r="5" cx="231.19" cy="648.19" fill="#8b9ad9"></circle><circle r="5" cx="412.12" cy="513.33" fill="#8b9ad9"></circle><circle r="5" cx="345.44" cy="709.41" fill="#8b9ad9"></circle><circle r="5" cx="540.18" cy="399.14" fill="#8b9ad9"></circle><circle r="5" cx="550.32" cy="521.97" fill="#8b9ad9"></circle><circle r="5" cx="553" cy="671.8" fill="#8b9ad9"></circle><circle r="5" cx="668.6" cy="366.09" fill="#8b9ad9"></circle><circle r="5" cx="653.33" cy="491.13" fill="#8b9ad9"></circle><circle r="5" cx="678.37" cy="668.04" fill="#8b9ad9"></circle><circle r="5" cx="799.7" cy="544.47" fill="#8b9ad9"></circle><circle r="5" cx="839.93" cy="656.91" fill="#8b9ad9"></circle><circle r="5" cx="968.86" cy="404.92" fill="#8b9ad9"></circle><circle r="5" cx="990.17" cy="702.64" fill="#8b9ad9"></circle><circle r="5" cx="1156.64" cy="56.84" fill="#8b9ad9"></circle><circle r="5" cx="1122.46" cy="251.2" fill="#8b9ad9"></circle><circle r="5" cx="1100.53" cy="369.91" fill="#8b9ad9"></circle><circle r="5" cx="1106.57" cy="544.79" fill="#8b9ad9"></circle><circle r="5" cx="1139.6" cy="701.92" fill="#8b9ad9"></circle><circle r="5" cx="1288.88" cy="-104.64" fill="#8b9ad9"></circle><circle r="5" cx="1284.91" cy="47.73" fill="#8b9ad9"></circle><circle r="5" cx="1301.13" cy="210.14" fill="#8b9ad9"></circle><circle r="5" cx="1260.45" cy="398.84" fill="#8b9ad9"></circle><circle r="5" cx="1294.72" cy="681.92" fill="#8b9ad9"></circle><circle r="5" cx="1421.84" cy="-75.16" fill="#8b9ad9"></circle><circle r="5" cx="1408.48" cy="63.18" fill="#8b9ad9"></circle><circle r="5" cx="1435.42" cy="217.2" fill="#8b9ad9"></circle><circle r="5" cx="1412.24" cy="409.56" fill="#8b9ad9"></circle><circle r="5" cx="1447.92" cy="513.47" fill="#8b9ad9"></circle><circle r="5" cx="1585.08" cy="-98.22" fill="#8b9ad9"></circle><circle r="5" cx="1542.27" cy="229.34" fill="#8b9ad9"></circle><circle r="5" cx="1537.74" cy="402.41" fill="#8b9ad9"></circle><circle r="5" cx="1583.43" cy="540.94" fill="#8b9ad9"></circle><circle r="5" cx="1589.7" cy="684.16" fill="#8b9ad9"></circle></g><defs><mask id="SvgjsMask1010"><rect width="1440" height="560" fill="#ffffff"></rect></mask><radialGradient id="SvgjsRadialGradient1011"><stop stop-color="#ffffff" offset="0.1"></stop><stop stop-color="#1735b3" offset="0.2"></stop><stop stop-color="rgba(23, 53, 179, 0)" offset="1"></stop></radialGradient></defs></svg>